<?xml version="1.0" standalone="no"?>
<!DOCTYPE svg PUBLIC "-//W3C//DTD SVG 20010904//EN"
 "http://www.w3.org/TR/2001/REC-SVG-20010904/DTD/svg10.dtd">
<svg version="1.0" xmlns="http://www.w3.org/2000/svg"
 width="500.000000pt" height="500.000000pt" viewBox="0 0 500.000000 500.000000"
 preserveAspectRatio="xMidYMid meet">

<g transform="translate(0.000000,500.000000) scale(0.100000,-0.100000)"
fill="#000000" stroke="none">
<path d="M2650 4234 c0 -74 4 -113 10 -109 6 4 10 53 10 116 0 66 -4 109 -10
109 -6 0 -10 -45 -10 -116z"/>
<path d="M2724 4337 c-9 -24 1 -207 11 -210 6 -1 11 42 13 111 2 74 -1 112 -8
112 -6 0 -13 -6 -16 -13z"/>
<path d="M2605 4072 c-16 -2 -34 -8 -39 -13 -6 -5 26 -9 82 -9 51 0 92 4 92 9
0 10 -86 18 -135 13z"/>
<path d="M2645 2840 c3 -5 8 -10 11 -10 2 0 4 5 4 10 0 6 -5 10 -11 10 -5 0
-7 -4 -4 -10z"/>
<path d="M2465 2720 c3 -5 8 -10 11 -10 2 0 4 5 4 10 0 6 -5 10 -11 10 -5 0
-7 -4 -4 -10z"/>
<path d="M2878 2279 c-21 -11 -38 -24 -38 -29 0 -6 45 -10 113 -10 101 0 113
2 125 20 7 11 21 20 32 20 11 0 20 5 20 10 0 6 -42 10 -107 9 -85 -1 -116 -5
-145 -20z"/>
<path d="M2878 1809 c-21 -11 -38 -24 -38 -29 0 -6 45 -10 113 -10 101 0 113
2 125 20 7 11 19 20 26 20 8 0 18 5 21 10 4 6 -32 10 -102 9 -85 -1 -116 -5
-145 -20z"/>
<path d="M2895 1348 c-11 -6 -26 -14 -34 -18 -8 -3 -17 -12 -19 -18 -3 -9 28
-12 112 -12 93 0 116 3 116 14 0 8 14 19 30 25 17 5 30 12 30 15 0 11 -215 5
-235 -6z"/>
</g>
</svg>
